<svg id="Capa_1" data-name="Capa 1" xmlns="http://www.w3.org/2000/svg" xmlns:xlink="http://www.w3.org/1999/xlink" viewBox="0 0 1000 1000"><defs><style>.cls-1{fill:#e7a7c9;}.cls-2,.cls-4{fill:#fff;}.cls-2{stroke:#fff;stroke-miterlimit:10;}.cls-3{fill:#a77bb5;}.cls-4{font-size:22.56px;font-family:Roboto-Black, Roboto;font-weight:800;}</style></defs><rect class="cls-1" width="1000" height="1000"/><image width="1002" height="1000" transform="translate(111 111) scale(0.78 0.78)" xlink:href="obreros.png"/><line class="cls-2" x1="185.41" y1="873.72" x2="852.47" y2="873.72"/><line class="cls-2" x1="185.41" y1="806.07" x2="852.47" y2="806.07"/><line class="cls-2" x1="185.41" y1="738.42" x2="852.47" y2="738.42"/><line class="cls-2" x1="185.41" y1="670.77" x2="852.47" y2="670.77"/><line class="cls-2" x1="185.41" y1="603.12" x2="852.47" y2="603.12"/><line class="cls-2" x1="185.41" y1="535.47" x2="852.47" y2="535.47"/><line class="cls-2" x1="185.41" y1="467.82" x2="852.47" y2="467.82"/><line class="cls-2" x1="185.41" y1="400.17" x2="852.47" y2="400.17"/><line class="cls-2" x1="185.41" y1="332.52" x2="852.47" y2="332.52"/><line class="cls-2" x1="185.41" y1="264.87" x2="852.47" y2="264.87"/><line class="cls-2" x1="185.41" y1="197.22" x2="852.47" y2="197.22"/><rect class="cls-3" x="243.42" y="797.56" width="240.59" height="76.63"/><rect class="cls-3" x="543.83" y="196.76" width="238.34" height="677.42"/><text class="cls-4" transform="translate(167.79 880.64)">0</text><text class="cls-4" transform="translate(128.46 812.99)">2000</text><text class="cls-4" transform="translate(129.24 745.34)">4000</text><text class="cls-4" transform="translate(129.24 677.69)">6000</text><text class="cls-4" transform="translate(128.46 610.04)">8000</text><text class="cls-4" transform="translate(116.44 541.61)">10000</text><text class="cls-4" transform="translate(115.57 473.96)">12000</text><text class="cls-4" transform="translate(116.11 407.09)">14000</text><text class="cls-4" transform="translate(115.69 338.66)">16000</text><text class="cls-4" transform="translate(115.69 271.01)">18000</text><text class="cls-4" transform="translate(115.95 204.82)">20000</text><text class="cls-4" transform="translate(335.63 848.07)">2300</text><text class="cls-4" transform="translate(636.47 541.61)">20000</text></svg>