<svg xmlns="http://www.w3.org/2000/svg" xmlns:xlink="http://www.w3.org/1999/xlink" viewBox="0 0 1002 1000"><defs><style>.cls-1,.cls-3{fill:#fff;}.cls-1{stroke:#fff;stroke-miterlimit:10;}.cls-2{fill:#a77bb5;}.cls-3{font-size:29px;font-family:Roboto-Black, Roboto;font-weight:800;}</style></defs><g id="Capa_2" data-name="Capa 2"><image width="1092" height="605" transform="translate(9 8) scale(0.91 1.64)" xlink:href="grafico%20barras.png"/></g><g id="Capa_1" data-name="Capa 1"><image width="1002" height="1000" xlink:href="obreros.png"/><line class="cls-1" x1="95.84" y1="980.36" x2="954.95" y2="980.36"/><line class="cls-1" x1="95.84" y1="893.41" x2="954.95" y2="893.41"/><line class="cls-1" x1="95.84" y1="806.45" x2="954.95" y2="806.45"/><line class="cls-1" x1="95.84" y1="719.5" x2="954.95" y2="719.5"/><line class="cls-1" x1="95.84" y1="632.55" x2="954.95" y2="632.55"/><line class="cls-1" x1="95.84" y1="545.59" x2="954.95" y2="545.59"/><line class="cls-1" x1="95.84" y1="458.64" x2="954.95" y2="458.64"/><line class="cls-1" x1="95.84" y1="371.68" x2="954.95" y2="371.68"/><line class="cls-1" x1="95.84" y1="284.73" x2="954.95" y2="284.73"/><line class="cls-1" x1="95.84" y1="197.77" x2="954.95" y2="197.77"/><line class="cls-1" x1="95.84" y1="110.82" x2="954.95" y2="110.82"/><rect class="cls-2" x="170.55" y="882.46" width="309.86" height="98.49"/><rect class="cls-2" x="557.45" y="110.23" width="306.96" height="870.73"/><text class="cls-3" transform="translate(73.13 989.26)">0</text><text class="cls-3" transform="translate(22.49 902.3)">2000</text><text class="cls-3" transform="translate(23.49 815.35)">4000</text><text class="cls-3" transform="translate(23.49 728.4)">6000</text><text class="cls-3" transform="translate(22.49 641.44)">8000</text><text class="cls-3" transform="translate(7 553.49)">10000</text><text class="cls-3" transform="translate(5.89 466.53)">12000</text><text class="cls-3" transform="translate(6.58 380.58)">14000</text><text class="cls-3" transform="translate(6.03 292.62)">16000</text><text class="cls-3" transform="translate(6.03 205.67)">18000</text><text class="cls-3" transform="translate(6.38 120.59)">20000</text><text class="cls-3" transform="translate(289.31 947.39)">2300</text><text class="cls-3" transform="translate(676.77 553.49)">20000</text></g></svg>