<svg id="Capa_1" data-name="Capa 1" xmlns="http://www.w3.org/2000/svg" xmlns:xlink="http://www.w3.org/1999/xlink" viewBox="0 0 1000 1000"><defs><style>.cls-1{fill:#e7a7c9;}.cls-2,.cls-4{fill:#fff;}.cls-2{stroke:#fff;stroke-miterlimit:10;}.cls-3{fill:#a77bb5;}.cls-4{font-size:16.7px;font-family:Roboto-Black, Roboto;font-weight:800;}</style></defs><rect class="cls-1" width="1000" height="1000"/><image width="1002" height="1000" transform="translate(212 212) scale(0.57 0.58)" xlink:href="obreros.png"/><line class="cls-2" x1="267.09" y1="776.69" x2="760.96" y2="776.69"/><line class="cls-2" x1="267.09" y1="726.6" x2="760.96" y2="726.6"/><line class="cls-2" x1="267.09" y1="676.52" x2="760.96" y2="676.52"/><line class="cls-2" x1="267.09" y1="626.43" x2="760.96" y2="626.43"/><line class="cls-2" x1="267.09" y1="576.35" x2="760.96" y2="576.35"/><line class="cls-2" x1="267.09" y1="526.26" x2="760.96" y2="526.26"/><line class="cls-2" x1="267.09" y1="476.17" x2="760.96" y2="476.17"/><line class="cls-2" x1="267.09" y1="426.09" x2="760.96" y2="426.09"/><line class="cls-2" x1="267.09" y1="376" x2="760.96" y2="376"/><line class="cls-2" x1="267.09" y1="325.92" x2="760.96" y2="325.92"/><line class="cls-2" x1="267.09" y1="275.83" x2="760.96" y2="275.83"/><rect class="cls-3" x="310.04" y="720.3" width="178.12" height="56.73"/><rect class="cls-3" x="532.45" y="275.49" width="176.46" height="501.54"/><text class="cls-4" transform="translate(254.04 781.81)">0</text><text class="cls-4" transform="translate(224.93 731.73)">2000</text><text class="cls-4" transform="translate(225.5 681.64)">4000</text><text class="cls-4" transform="translate(225.5 631.55)">6000</text><text class="cls-4" transform="translate(224.93 581.47)">8000</text><text class="cls-4" transform="translate(216.02 530.81)">10000</text><text class="cls-4" transform="translate(215.39 480.72)">12000</text><text class="cls-4" transform="translate(215.78 431.21)">14000</text><text class="cls-4" transform="translate(215.47 380.55)">16000</text><text class="cls-4" transform="translate(215.47 330.47)">18000</text><text class="cls-4" transform="translate(215.67 281.46)">20000</text><text class="cls-4" transform="translate(378.31 757.69)">2300</text><text class="cls-4" transform="translate(601.04 530.81)">20000</text></svg>